<svg aria-hidden="true" style="position: absolute; width: 0; height: 0; overflow: hidden;" version="1.1" xmlns="http://www.w3.org/2000/svg" xmlns:xlink="http://www.w3.org/1999/xlink">
<defs>
<symbol id="icon-facebook" viewBox="0 0 32 32">
<path d="M15.208 8.976c-1.058 0.164-1.835 0.404-2.633 0.818-1.329 0.69-2.515 1.902-3.205 3.261-0.097 0.194-0.266 0.619-0.373 0.946-0.465 1.39-0.516 2.755-0.153 4.176 0.685 2.668 2.806 4.739 5.5 5.367 0.685 0.158 1.902 0.22 2.592 0.128 3.021-0.404 5.465-2.561 6.221-5.5 1.053-4.074-1.518-8.189-5.664-9.079-0.48-0.102-1.902-0.174-2.285-0.118zM17.544 10.065c0.767 0.194 1.396 0.47 2.035 0.895 1.431 0.956 2.413 2.423 2.765 4.135 0.133 0.665 0.148 1.702 0.026 2.362-0.486 2.638-2.464 4.652-5.112 5.229-0.593 0.128-1.999 0.123-2.561-0.010-1.314-0.307-2.357-0.874-3.246-1.769-0.787-0.787-1.319-1.666-1.626-2.684-0.215-0.705-0.281-1.166-0.276-1.942 0.010-2.812 1.876-5.311 4.575-6.134 1.079-0.327 2.341-0.358 3.42-0.082z"></path>
<path d="M16.148 12.626c-0.429 0.072-0.762 0.322-0.976 0.736-0.097 0.179-0.118 0.317-0.133 0.935l-0.020 0.731h-0.762l0.015 0.624 0.015 0.629 0.741 0.031 0.010 1.876 0.015 1.876h1.482l0.015-1.876 0.010-1.876 1.048-0.031 0.051-0.588c0.031-0.322 0.046-0.603 0.036-0.629-0.010-0.020-0.266-0.036-0.578-0.036h-0.557v-0.48c0-0.46 0.005-0.491 0.133-0.588 0.118-0.092 0.21-0.107 0.588-0.107h0.455v-0.608c0-0.506-0.015-0.613-0.082-0.639-0.112-0.041-1.222-0.026-1.508 0.020z"></path>
</symbol>
<symbol id="icon-insagram" viewBox="0 0 32 32">
<path d="M14.901 9.482c-1.222 0.199-2.367 0.68-3.353 1.411-0.762 0.562-1.707 1.682-2.132 2.525-0.629 1.252-0.91 2.704-0.782 4.018 0.184 1.799 0.915 3.369 2.152 4.59 1.493 1.482 3.399 2.224 5.516 2.137 1.385-0.051 2.648-0.465 3.839-1.247 0.593-0.394 1.574-1.385 1.988-2.004 0.838-1.263 1.237-2.576 1.237-4.095 0.005-2.106-0.772-3.926-2.3-5.378-1.017-0.971-2.198-1.59-3.573-1.886-0.659-0.138-1.948-0.174-2.592-0.072zM16.803 10.382c2.832 0.383 5.081 2.53 5.562 5.306 0.097 0.557 0.097 1.651 0 2.219-0.455 2.597-2.469 4.667-5.086 5.229-0.583 0.123-1.61 0.148-2.239 0.051-2.438-0.373-4.463-2.111-5.214-4.478-0.394-1.242-0.383-2.638 0.026-3.911 0.639-1.973 2.275-3.583 4.273-4.192 0.843-0.256 1.845-0.342 2.679-0.225z"></path>
<path d="M13.868 13.061c-0.726 0.194-1.293 0.721-1.564 1.447-0.102 0.271-0.107 0.404-0.128 2.045-0.020 1.963 0.010 2.316 0.256 2.806 0.174 0.353 0.613 0.808 0.935 0.976 0.501 0.25 0.644 0.266 2.607 0.266 1.948 0 2.173-0.020 2.627-0.25 0.368-0.189 0.757-0.598 0.961-1.017l0.194-0.389v-4.304l-0.189-0.383c-0.296-0.603-0.813-1.027-1.447-1.191-0.424-0.112-3.844-0.112-4.253-0.005zM18.157 13.848c0.307 0.148 0.613 0.445 0.767 0.731 0.118 0.22 0.118 0.235 0.118 2.213s0 1.994-0.118 2.213c-0.158 0.297-0.45 0.583-0.757 0.731-0.25 0.123-0.266 0.123-2.055 0.138-1.994 0.015-2.152 0-2.551-0.291-0.118-0.087-0.276-0.25-0.363-0.373-0.286-0.419-0.291-0.47-0.291-2.443v-1.815l0.169-0.342c0.199-0.404 0.501-0.675 0.895-0.818 0.24-0.082 0.44-0.092 2.106-0.077 1.82 0.010 1.845 0.010 2.081 0.133z"></path>
<path d="M17.733 14.461c-0.158 0.158-0.184 0.281-0.092 0.48 0.056 0.128 0.24 0.24 0.378 0.24 0.23 0 0.434-0.22 0.434-0.465 0-0.153-0.271-0.404-0.434-0.404-0.082 0-0.194 0.061-0.286 0.148z"></path>
<path d="M15.611 14.947c-0.527 0.133-1.038 0.557-1.263 1.043-0.092 0.194-0.112 0.337-0.112 0.751 0 0.455 0.015 0.542 0.143 0.797 0.153 0.317 0.527 0.695 0.833 0.854 0.91 0.465 2.029 0.082 2.484-0.849 0.153-0.307 0.169-0.383 0.169-0.803s-0.015-0.496-0.169-0.803c-0.383-0.782-1.268-1.201-2.086-0.992zM16.414 15.601c0.266 0.077 0.598 0.373 0.716 0.624 0.123 0.276 0.123 0.757 0 1.033-0.118 0.25-0.45 0.547-0.716 0.624-0.782 0.235-1.564-0.332-1.559-1.14 0.005-0.823 0.772-1.38 1.559-1.14z"></path>
</symbol>
<symbol id="carousel-button" viewBox="0 0 32 32">
<path fill="#fffafa" style="fill: var(--color1, #fffafa)" d="M32 16c0 8.837-7.163 16-16 16s-16-7.163-16-16c0-8.837 7.163-16 16-16s16 7.163 16 16z"></path>
<path fill="#000" style="fill: var(--color2, #000)" d="M7.458 14.569c-0.463 0.463-0.463 1.213 0 1.676l7.543 7.543c0.463 0.463 1.213 0.463 1.676 0s0.463-1.213 0-1.676l-6.704-6.704 6.704-6.704c0.463-0.463 0.463-1.213 0-1.676s-1.213-0.463-1.676 0l-7.543 7.542zM27.259 14.222h-18.963v2.37h18.963v-2.37zM29.63 16c0 7.527-6.102 13.63-13.63 13.63v4.741c10.146 0 18.37-8.225 18.37-18.37h-4.741zM16 29.63c-7.527 0-13.63-6.102-13.63-13.63h-4.741c0 10.146 8.225 18.37 18.37 18.37v-4.741zM2.37 16c0-7.527 6.102-13.63 13.63-13.63v-4.741c-10.146 0-18.37 8.225-18.37 18.37h4.741zM16 2.37c7.527 0 13.63 6.102 13.63 13.63h4.741c0-10.146-8.225-18.37-18.37-18.37v4.741z"></path>
</symbol>
</defs>
</svg>
