<svg width="27" height="27" viewBox="0 0 27 27" fill="none" xmlns="http://www.w3.org/2000/svg">
<mask id="path-1-inside-1_1_8" fill="white">
<path d="M27 13.5C27 20.9558 20.9558 27 13.5 27C6.04416 27 0 20.9558 0 13.5C0 6.04416 6.04416 0 13.5 0C20.9558 0 27 6.04416 27 13.5Z"/>
</mask>
<path d="M27 13.5C27 20.9558 20.9558 27 13.5 27C6.04416 27 0 20.9558 0 13.5C0 6.04416 6.04416 0 13.5 0C20.9558 0 27 6.04416 27 13.5Z" fill="#FFFAFA"/>
<path d="M6.29289 12.2929C5.90237 12.6834 5.90237 13.3166 6.29289 13.7071L12.6569 20.0711C13.0474 20.4616 13.6805 20.4616 14.0711 20.0711C14.4616 19.6805 14.4616 19.0474 14.0711 18.6569L8.41421 13L14.0711 7.34315C14.4616 6.95262 14.4616 6.31946 14.0711 5.92893C13.6805 5.53841 13.0474 5.53841 12.6569 5.92893L6.29289 12.2929ZM23 12H7V14H23V12ZM25 13.5C25 19.8513 19.8513 25 13.5 25V29C22.0604 29 29 22.0604 29 13.5H25ZM13.5 25C7.14873 25 2 19.8513 2 13.5H-2C-2 22.0604 4.93959 29 13.5 29V25ZM2 13.5C2 7.14873 7.14873 2 13.5 2V-2C4.93959 -2 -2 4.93959 -2 13.5H2ZM13.5 2C19.8513 2 25 7.14873 25 13.5H29C29 4.93959 22.0604 -2 13.5 -2V2Z" fill="black" mask="url(#path-1-inside-1_1_8)"/>
</svg>
